<?xml version="1.0" encoding="utf-8"?>
<svg xmlns="http://www.w3.org/2000/svg" version="1.1" viewBox="0 0 1400 340">
	<title>The titlepage for the Standard Ebooks edition of Pirato Ĵenifro, by Bertold Brecht</title>
	<style>
		.title-text{
			dominant-baseline: middle;
			fill: #000;
			font: bold 95px sans-serif;
			letter-spacing: 5px;
			text-anchor: middle;
		}
	</style>
	<g aria-label="PIRATO ĴENIFRO">
		<path aria-label="PIRATO ĴENIFRO" class="title-text" d="m 317.23508,58.104999 q 13.11,0 19.095,5.7 6.08,5.605 6.08,15.485 0,5.89 -2.47,11.115 -2.47,5.13 -8.265,8.265 -5.7,3.135001 -15.58,3.135001 h -6.175 v 24.13 h -14.345 V 58.104999 Z m -0.76,11.78 h -6.555 v 20.14 h 4.75 q 6.08,0 9.595,-2.375 3.61,-2.47 3.61,-7.885 0,-9.88 -11.4,-9.88 z M 385.60011,125.935 h -30.875 v -8.17 l 8.265,-3.8 V 70.074999 l -8.265,-3.8 v -8.17 h 30.875 v 8.17 l -8.265,3.8 V 113.965 l 8.265,3.8 z M 421.9501,58.104999 q 13.87,0 20.425,5.035 6.65,5.035 6.65,15.295 0,4.655 -1.805,8.17 -1.71,3.42 -4.655,5.89 -2.85,2.375 -6.175,3.895 l 19.95,29.545001 h -15.96 l -16.15,-26.030001 h -7.695 V 125.935 h -14.345 V 58.104999 Z m -1.045,11.78 h -4.37 v 18.335 h 4.655 q 7.125,0 10.165,-2.375 3.135,-2.375 3.135,-7.03 0,-4.845 -3.325,-6.84 -3.23,-2.09 -10.26,-2.09 z m 90.49998,56.050001 -4.94,-16.15 h -24.7 l -4.94,16.15 h -15.485 l 23.94,-68.115001 h 17.575 l 24.035,68.115001 z m -13.3,-43.985001 q -0.475,-1.615 -1.235,-4.085 -0.76,-2.47 -1.52,-5.035 -0.76,-2.565 -1.235,-4.465 -0.475,1.9 -1.33,4.75 -0.76,2.755 -1.52,5.32 -0.665,2.47 -1.045,3.515 l -4.845,15.77 h 17.67 z M 559.91517,125.935 h -14.345 V 70.074999 h -18.43 v -11.97 h 51.205 v 11.97 h -18.43 z m 93.54001,-34.010001 q 0,10.545001 -3.515,18.430001 -3.42,7.79 -10.545,12.16 -7.125,4.37 -18.24,4.37 -11.02,0 -18.24,-4.37 -7.125,-4.37 -10.64,-12.255 -3.42,-7.885 -3.42,-18.430001 0,-10.545 3.42,-18.335 3.515,-7.79 10.64,-12.065 7.22,-4.37 18.335,-4.37 11.02,0 18.145,4.37 7.125,4.275 10.545,12.16 3.515,7.79 3.515,18.335 z m -49.495,0 q 0,10.640001 4.085,16.815001 4.085,6.08 13.11,6.08 9.215,0 13.205,-6.08 3.99,-6.175 3.99,-16.815001 0,-10.735 -3.99,-16.815 -3.99,-6.08 -13.11,-6.08 -9.12,0 -13.205,6.08 -4.085,6.08 -4.085,16.815 z M 695.09016,145.885 q -2.755,0 -4.845,-0.38 -2.09,-0.285 -3.61,-0.665 v -11.97 q 1.52,0.38 3.23,0.665 1.615,0.285 3.515,0.285 2.47,0 4.465,-0.95 2.09,-0.95 3.23,-3.61 1.14,-2.66 1.14,-7.6 V 58.104999 h 14.345 V 121.565 q 0,8.74 -2.755,14.06 -2.66,5.415 -7.505,7.79 -4.845,2.47 -11.21,2.47 z m 22.61,-108.680001 q 1.33,2.09 3.42,4.75 2.185,2.565 4.465,5.035 2.28,2.47 3.99,4.18 v 1.235 h -9.405 q -2.47,-1.52 -5.415,-3.515 -2.945,-2.09 -5.415,-4.655 -2.47,2.565 -5.32,4.56 -2.85,1.995 -5.32,3.61 h -9.405 v -1.235 q 1.805,-1.805 4.085,-4.18 2.185,-2.47 4.275,-5.035 2.185,-2.66 3.515,-4.75 z M 777.7051,125.935 h -39.045 V 58.104999 h 39.045 v 11.78 h -24.7 v 14.915 h 22.99 v 11.78 h -22.99 V 114.06 h 24.7 z m 79.28995,0 h -18.24 l -29.545,-51.300001 h -0.38 q 0.19,4.845 0.38,9.69 0.285,4.845 0.475,9.69 V 125.935 h -12.825 V 58.104999 h 18.145 l 29.45,50.825001 h 0.285 q -0.095,-4.75 -0.285,-9.405001 -0.19,-4.655 -0.38,-9.31 v -32.11 h 12.92 z m 47.46493,0 h -30.875 v -8.17 l 8.265,-3.8 V 70.074999 l -8.265,-3.8 v -8.17 h 30.875 v 8.17 l -8.265,3.8 V 113.965 l 8.265,3.8 z m 30.74501,0 h -14.155 V 58.104999 h 38.855 v 11.78 h -24.7 v 17.48 h 22.99 v 11.78 h -22.99 z m 62.75997,-67.830001 q 13.87004,0 20.42504,5.035 6.65,5.035 6.65,15.295 0,4.655 -1.805,8.17 -1.71,3.42 -4.655,5.89 -2.85,2.375 -6.175,3.895 l 19.95,29.545001 h -15.96 l -16.15,-26.030001 h -7.69504 V 125.935 h -14.345 V 58.104999 Z m -1.045,11.78 h -4.37 v 18.335 h 4.655 q 7.12504,0 10.16504,-2.375 3.135,-2.375 3.135,-7.03 0,-4.845 -3.325,-6.84 -3.23,-2.09 -10.26004,-2.09 z m 110.54504,22.04 q 0,10.545001 -3.515,18.430001 -3.42,7.79 -10.545,12.16 -7.125,4.37 -18.24,4.37 -11.02,0 -18.24,-4.37 -7.125,-4.37 -10.64,-12.255 -3.42,-7.885 -3.42,-18.430001 0,-10.545 3.42,-18.335 3.515,-7.79 10.64,-12.065 7.22,-4.37 18.335,-4.37 11.02,0 18.145,4.37 7.125,4.275 10.545,12.16 3.515,7.79 3.515,18.335 z m -49.495,0 q 0,10.640001 4.085,16.815001 4.085,6.08 13.11,6.08 9.215,0 13.205,-6.08 3.99,-6.175 3.99,-16.815001 0,-10.735 -3.99,-16.815 -3.99,-6.08 -13.11,-6.08 -9.12,0 -13.205,6.08 -4.085,6.08 -4.085,16.815 z" style="font-weight:bold;font-size:95px;letter-spacing:5px;dominant-baseline:middle;text-anchor:middle"/>
	</g>
	<g aria-label="BERTOLD BRECHT">
		<path d="M357.18,232.11l17.96,0.00c9.96,0.00,17.82,3.72,17.82,14.74c0.00,5.33-2.32,9.89-7.23,12.42c7.23,1.26,12.35,5.26,12.35,14.60c0.00,9.54-6.95,16.14-18.95,16.14l-21.96,0.00l0.00-57.89z  M370.38,254.77l1.05,0.00c5.68,0.00,8.77-1.75,8.77-6.60c0.00-4.14-3.02-5.89-8.77-5.89l-1.05,0.00l0.00,12.49z  M370.38,279.82l4.14,0.00c6.25,0.00,9.68-1.89,9.68-6.46c0.00-5.33-3.44-7.23-9.68-7.23l-4.14,0.00l0.00,13.68z"/>
		<path d="M442.04,232.11l0.00,11.58l-19.93,0.00l0.00,11.51l19.09,0.00l0.00,11.58l-19.09,0.00l0.00,11.65l19.93,0.00l0.00,11.58l-33.12,0.00l0.00-57.89l33.12,0.00z"/>
		<path d="M454.62,232.11l20.70,0.00c10.74,0.00,18.88,5.82,18.88,17.19c0.00,8.70-4.77,14.53-11.86,16.77l19.93,23.93l-16.77,0.00l-17.68-22.88l0.00,22.88l-13.19,0.00l0.00-57.89z  M467.82,257.79l1.54,0.00c4.98,0.00,10.95-0.35,10.95-7.58s-5.96-7.58-10.95-7.58l-1.54,0.00l0.00,15.16z"/>
		<path d="M503.41,243.68l0.00-11.58l40.70,0.00l0.00,11.58l-13.75,0.00l0.00,46.32l-13.19,0.00l0.00-46.32l-13.75,0.00z"/>
		<path d="M549.04,261.02c0.00-16.91,13.26-29.96,29.19-29.96c16.07,0.00,29.12,13.05,29.12,29.96s-12.49,30.04-29.12,30.04c-17.12,0.00-29.19-13.12-29.19-30.04z  M563.29,261.02c0.00,8.63,4.14,17.26,14.95,17.26c10.53,0.00,14.88-8.63,14.88-17.26s-4.63-17.26-14.88-17.26c-10.18,0.00-14.95,8.63-14.95,17.26z"/>
		<path d="M631.38,232.11l0.00,46.32l19.93,0.00l0.00,11.58l-33.12,0.00l0.00-57.89l13.19,0.00z"/>
		<path d="M662.83,232.11l16.77,0.00c15.86,0.00,29.19,12.07,29.19,28.91c0.00,16.91-13.26,28.98-29.19,28.98l-16.77,0.00l0.00-57.89z  M676.03,278.21l2.04,0.00c9.75,0.00,16.42-7.44,16.49-17.12c0.00-9.68-6.67-17.19-16.49-17.19l-2.04,0.00l0.00,34.32z"/>
		<path d="M743.78,232.11l17.96,0.00c9.96,0.00,17.82,3.72,17.82,14.74c0.00,5.33-2.32,9.89-7.23,12.42c7.23,1.26,12.35,5.26,12.35,14.60c0.00,9.54-6.95,16.14-18.95,16.14l-21.96,0.00l0.00-57.89z  M756.97,254.77l1.05,0.00c5.68,0.00,8.77-1.75,8.77-6.60c0.00-4.14-3.02-5.89-8.77-5.89l-1.05,0.00l0.00,12.49z  M756.97,279.82l4.14,0.00c6.25,0.00,9.68-1.89,9.68-6.46c0.00-5.33-3.44-7.23-9.68-7.23l-4.14,0.00l0.00,13.68z"/>
		<path d="M795.52,232.11l20.70,0.00c10.74,0.00,18.88,5.82,18.88,17.19c0.00,8.70-4.77,14.53-11.86,16.77l19.93,23.93l-16.77,0.00l-17.68-22.88l0.00,22.88l-13.19,0.00l0.00-57.89z  M808.71,257.79l1.54,0.00c4.98,0.00,10.95-0.35,10.95-7.58s-5.96-7.58-10.95-7.58l-1.54,0.00l0.00,15.16z"/>
		<path d="M883.89,232.11l0.00,11.58l-19.93,0.00l0.00,11.51l19.09,0.00l0.00,11.58l-19.09,0.00l0.00,11.65l19.93,0.00l0.00,11.58l-33.12,0.00l0.00-57.89l33.12,0.00z"/>
		<path d="M927.27,278.07c6.74,0.00,11.37-3.58,11.37-3.58l5.61,11.23s-6.46,5.33-19.02,5.33c-16.35,0.00-31.37-13.33-31.37-29.89c0.00-16.63,14.95-30.11,31.37-30.11c12.56,0.00,19.02,5.33,19.02,5.33l-5.61,11.23s-4.63-3.58-11.37-3.58c-13.26,0.00-19.09,9.26-19.09,16.98c0.00,7.79,5.82,17.05,19.09,17.05z"/>
		<path d="M967.50,266.77l0.00,23.23l-13.19,0.00l0.00-57.89l13.19,0.00l0.00,23.09l18.67,0.00l0.00-23.09l13.19,0.00l0.00,57.89l-13.19,0.00l0.00-23.23l-18.67,0.00z"/>
		<path d="M1005.76,243.68l0.00-11.58l40.70,0.00l0.00,11.58l-13.75,0.00l0.00,46.32l-13.19,0.00l0.00-46.32l-13.75,0.00z"/>
	</g>
</svg>
